<svg width="147" height="149" viewBox="0 0 147 149" fill="none" xmlns="http://www.w3.org/2000/svg">
<path d="M73.483 0.816895C58.9579 0.816895 44.759 5.12411 32.6819 13.1938C20.6047 21.2636 11.1916 32.7334 5.63317 46.1528C0.0746975 59.5723 -1.37957 74.3387 1.45421 88.5847C4.28799 102.831 11.2826 115.916 21.5535 126.187C31.8243 136.458 44.9102 143.452 59.1562 146.286C73.4023 149.119 88.1686 147.665 101.588 142.106C115.007 136.548 126.477 127.135 134.547 115.057C142.616 102.98 146.923 88.781 146.923 74.2559C146.923 64.6117 145.023 55.0619 141.333 46.1518C137.642 37.2417 132.232 29.1458 125.413 22.3263C118.593 15.5069 110.497 10.0974 101.587 6.40683C92.6771 2.71623 83.1273 0.816763 73.483 0.816895ZM73.483 130.339C62.3911 130.339 51.5483 127.05 42.3257 120.887C33.1031 114.725 25.9149 105.966 21.6702 95.7188C17.4254 85.4712 16.3146 74.195 18.4785 63.3162C20.6424 52.4374 25.9835 42.4445 33.8266 34.6013C41.6698 26.7581 51.6626 21.4167 62.5414 19.2526C73.4202 17.0886 84.6963 18.199 94.944 22.4436C105.192 26.6882 113.951 33.8762 120.113 43.0987C126.276 52.3212 129.565 63.164 129.565 74.2559C129.565 81.6208 128.115 88.9137 125.296 95.718C122.478 102.522 118.347 108.705 113.139 113.913C107.932 119.121 101.749 123.252 94.9449 126.07C88.1407 128.889 80.8479 130.34 73.483 130.34V130.339Z" fill="#016A88"/>
<path d="M74.25 148.5C54.5577 148.5 35.6719 140.677 21.7473 126.753C7.82274 112.828 0 93.9423 0 74.25C0 54.5577 7.82274 35.6719 21.7473 21.7473C35.6719 7.82275 54.5577 4.14985e-07 74.25 0C76.6368 0.0250736 78.9173 0.990818 80.5962 2.68745C82.2751 4.38409 83.2168 6.67461 83.2168 9.06151C83.2168 11.4484 82.2751 13.7389 80.5962 15.4356C78.9173 17.1322 76.6368 18.0979 74.25 18.123C64.7561 18.1185 55.4162 20.5223 47.1041 25.1096C38.792 29.6969 31.7793 36.3178 26.7223 44.3528C21.6652 52.3877 18.729 61.5742 18.1884 71.0527C17.6477 80.5312 19.5203 89.992 23.6309 98.5499C27.7414 107.108 33.9557 114.483 41.6923 119.986C49.4288 125.489 58.4348 128.939 67.8677 130.014C77.3005 131.089 86.8519 129.754 95.6283 126.133C104.405 122.512 112.119 116.724 118.05 109.311C119.553 107.436 121.739 106.236 124.127 105.973C126.516 105.71 128.91 106.407 130.785 107.91C132.66 109.413 133.86 111.599 134.123 113.987C134.386 116.376 133.689 118.77 132.186 120.645C125.252 129.353 116.439 136.381 106.407 141.204C96.3743 146.028 85.3816 148.522 74.25 148.5Z" fill="#FBFBFB"/>
<path d="M56.293 70.672C55.7944 68.156 54.2417 66.898 51.635 66.898C49.6177 66.898 48.1104 67.68 47.113 69.244C46.1157 70.7853 45.6284 73.3353 45.651 76.894C46.1724 75.7153 47.0337 74.7973 48.235 74.14C49.459 73.46 50.819 73.12 52.315 73.12C54.6497 73.12 56.5084 73.8453 57.891 75.296C59.2964 76.7467 59.999 78.7527 59.999 81.314C59.999 82.8553 59.693 84.238 59.081 85.462C58.4917 86.686 57.585 87.6607 56.361 88.386C55.1597 89.1113 53.6977 89.474 51.975 89.474C49.6404 89.474 47.8157 88.9527 46.501 87.91C45.1864 86.8673 44.2684 85.428 43.747 83.592C43.2257 81.756 42.965 79.4893 42.965 76.792C42.965 68.4733 45.8664 64.314 51.669 64.314C53.8904 64.314 55.6357 64.9147 56.905 66.116C58.1744 67.3173 58.9224 68.836 59.149 70.672H56.293ZM51.669 75.738C50.6944 75.738 49.7764 75.942 48.915 76.35C48.0537 76.7353 47.351 77.336 46.807 78.152C46.2857 78.9453 46.025 79.92 46.025 81.076C46.025 82.7987 46.5237 84.204 47.521 85.292C48.5184 86.3573 49.9464 86.89 51.805 86.89C53.3917 86.89 54.6497 86.4027 55.579 85.428C56.531 84.4307 57.007 83.0933 57.007 81.416C57.007 79.648 56.5537 78.2653 55.647 77.268C54.7404 76.248 53.4144 75.738 51.669 75.738ZM68.6611 76.622C67.3917 76.1233 66.4171 75.398 65.7371 74.446C65.0571 73.494 64.7171 72.338 64.7171 70.978C64.7171 69.754 65.0231 68.6547 65.6351 67.68C66.2471 66.6827 67.1537 65.9007 68.3551 65.334C69.5791 64.7447 71.0524 64.45 72.7751 64.45C74.4977 64.45 75.9597 64.7447 77.1611 65.334C78.3851 65.9007 79.3031 66.6827 79.9151 67.68C80.5497 68.6547 80.8671 69.754 80.8671 70.978C80.8671 72.2927 80.5157 73.4487 79.8131 74.446C79.1104 75.4207 78.1471 76.146 76.9231 76.622C78.3284 77.0527 79.4391 77.812 80.2551 78.9C81.0937 79.9653 81.5131 81.2573 81.5131 82.776C81.5131 84.2493 81.1504 85.5413 80.4251 86.652C79.6997 87.74 78.6684 88.59 77.3311 89.202C76.0164 89.7913 74.4977 90.086 72.7751 90.086C71.0524 90.086 69.5337 89.7913 68.2191 89.202C66.9271 88.59 65.9184 87.74 65.1931 86.652C64.4677 85.5413 64.1051 84.2493 64.1051 82.776C64.1051 81.2573 64.5131 79.954 65.3291 78.866C66.1451 77.778 67.2557 77.03 68.6611 76.622ZM77.8751 71.352C77.8751 69.9693 77.4217 68.904 76.5151 68.156C75.6084 67.408 74.3617 67.034 72.7751 67.034C71.2111 67.034 69.9757 67.408 69.0691 68.156C68.1624 68.904 67.7091 69.9807 67.7091 71.386C67.7091 72.6553 68.1737 73.6753 69.1031 74.446C70.0551 75.2167 71.2791 75.602 72.7751 75.602C74.2937 75.602 75.5177 75.2167 76.4471 74.446C77.3991 73.6527 77.8751 72.6213 77.8751 71.352ZM72.7751 77.982C71.0977 77.982 69.7264 78.3787 68.6611 79.172C67.5957 79.9427 67.0631 81.11 67.0631 82.674C67.0631 84.1247 67.5731 85.292 68.5931 86.176C69.6357 87.06 71.0297 87.502 72.7751 87.502C74.5204 87.502 75.9031 87.06 76.9231 86.176C77.9431 85.292 78.4531 84.1247 78.4531 82.674C78.4531 81.1553 77.9317 79.9993 76.8891 79.206C75.8464 78.39 74.4751 77.982 72.7751 77.982ZM84.9423 70.366C84.9423 68.8247 85.4069 67.6007 86.3363 66.694C87.2656 65.7647 88.4556 65.3 89.9063 65.3C91.3569 65.3 92.5469 65.7647 93.4763 66.694C94.4056 67.6007 94.8703 68.8247 94.8703 70.366C94.8703 71.93 94.4056 73.1767 93.4763 74.106C92.5469 75.0127 91.3569 75.466 89.9063 75.466C88.4556 75.466 87.2656 75.0127 86.3363 74.106C85.4069 73.1767 84.9423 71.93 84.9423 70.366ZM104.798 65.674L91.0283 89.406H87.9683L101.738 65.674H104.798ZM89.9063 67.204C89.1356 67.204 88.5236 67.476 88.0703 68.02C87.6396 68.5413 87.4243 69.3233 87.4243 70.366C87.4243 71.4087 87.6396 72.202 88.0703 72.746C88.5236 73.29 89.1356 73.562 89.9063 73.562C90.6769 73.562 91.2889 73.29 91.7423 72.746C92.1956 72.1793 92.4223 71.386 92.4223 70.366C92.4223 69.3233 92.1956 68.5413 91.7423 68.02C91.2889 67.476 90.6769 67.204 89.9063 67.204ZM97.9643 84.714C97.9643 83.15 98.4289 81.9147 99.3583 81.008C100.288 80.0787 101.478 79.614 102.928 79.614C104.379 79.614 105.558 80.0787 106.464 81.008C107.394 81.9147 107.858 83.15 107.858 84.714C107.858 86.2553 107.394 87.4907 106.464 88.42C105.558 89.3493 104.379 89.814 102.928 89.814C101.478 89.814 100.288 89.3607 99.3583 88.454C98.4289 87.5247 97.9643 86.278 97.9643 84.714ZM102.894 81.552C102.124 81.552 101.512 81.824 101.058 82.368C100.605 82.8893 100.378 83.6713 100.378 84.714C100.378 85.734 100.605 86.516 101.058 87.06C101.512 87.5813 102.124 87.842 102.894 87.842C103.665 87.842 104.277 87.5813 104.73 87.06C105.184 86.516 105.41 85.734 105.41 84.714C105.41 83.6713 105.184 82.8893 104.73 82.368C104.277 81.824 103.665 81.552 102.894 81.552Z" fill="#FCFDFE"/>
</svg>
