<?xml version="1.0" encoding="utf-8"?>
<!-- Generator: Adobe Illustrator 16.0.0, SVG Export Plug-In . SVG Version: 6.00 Build 0)  -->
<!DOCTYPE svg PUBLIC "-//W3C//DTD SVG 1.1//EN" "http://www.w3.org/Graphics/SVG/1.1/DTD/svg11.dtd">
<svg version="1.1" id="Layer_1" xmlns="http://www.w3.org/2000/svg" xmlns:xlink="http://www.w3.org/1999/xlink" x="0px" y="0px"
	 width="67.899px" height="66.937px" viewBox="0 0 67.899 66.937" enable-background="new 0 0 67.899 66.937" xml:space="preserve">
<g display="none">
	<path display="inline" fill="#7E9FB8" d="M30.909,32.253l2.341-0.057V7.974c-0.772-0.063-1.552-0.104-2.341-0.104
		c-6.766,0-12.976,2.37-17.854,6.321L30.909,32.253z"/>
	<path display="inline" fill="#7E9FB8" d="M34.671,32.071l29.687-0.234c1.43-18.741-9.955-30.153-29.824-29.528L34.671,32.071z"/>
	<path display="inline" fill="#7E9FB8" d="M30.028,34.436L11.688,15.37c-5.637,5.188-9.172,12.627-9.172,20.894
		c0,7.401,2.834,14.14,7.475,19.193L30.028,34.436z"/>
	<path display="inline" fill="#7E9FB8" d="M59.019,33.542H34.754L11.817,57.279l-1.785-1.777c5.188,5.627,12.619,9.154,20.876,9.154
		c15.681,0,28.393-12.712,28.393-28.393c0-0.918-0.046-1.824-0.134-2.719C59.167,33.536,59.019,33.542,59.019,33.542z"/>
</g>
<path fill="#7E9FB8" d="M55.402,41.076v-4.304h2.318c11.588-2.648,4.636-9.933,4.636-9.933c-1.655-2.317-9.602-3.972-9.602-3.972
	v-1.324C47.788,5.982,44.146,3.665,44.146,3.665h-5.629v1.656l-8.276,0.662V3.665h-8.608c-4.635,8.938-5.628,16.222-5.628,16.222
	l-1.655,2.649c-5.628,1.324-8.939,3.642-8.939,3.642c-7.946,9.932,6.291,10.925,6.291,10.925c3.311,2.649-4.635,7.614-4.635,7.614
	c-9.932,7.614,4.304,11.918,4.304,11.918c3.642,0.332,2.317,3.311,2.317,3.311c-0.993,1.325-2.317,3.392-2.317,3.392l45.025-0.081
	c2.318,0.662-1.654-2.979-1.654-2.979c-2.318-0.994,0.33-2.98,0.33-2.98c1.986,0,5.96-2.979,5.96-2.979
	C69.972,47.366,55.402,41.076,55.402,41.076z M17.991,22.537h1.325v1.655h3.972v1.49h21.52V24.11h3.476v-1.573h1.365v2.524
	l-1.116-0.373l0.123,1.738h-3.972v1.117h-8.939v1.49h-2.979v-1.242h-9.808v-1.241h-3.641v-0.765h-1.325V22.537z M51.141,41.325
	c-2.359,4.221-9.064,14.153-9.064,14.153c-8.442,12.539-15.767,0-15.767,0c-6.208-5.711-10.677-14.402-10.677-14.402v-2.855h2.358
	v1.118h2.607c-0.621,2.111,0.125,3.725,0.125,3.725c3.352,5.462,10.801,2.607,10.801,2.607v-0.993l0.745-0.373v-5.09h3.228v5.214
	c5.959,5.09,11.67-1.117,11.67-1.117l0.124-3.601h2.358v-1.49h2.607C53.002,39.834,51.141,41.325,51.141,41.325z"/>
</svg>
