<?xml version="1.0" encoding="iso-8859-1"?>
<!-- Generator: Adobe Illustrator 16.0.0, SVG Export Plug-In . SVG Version: 6.00 Build 0)  -->
<!DOCTYPE svg PUBLIC "-//W3C//DTD SVG 1.1//EN" "http://www.w3.org/Graphics/SVG/1.1/DTD/svg11.dtd">
<svg version="1.1" id="Capa_1" xmlns="http://www.w3.org/2000/svg" xmlns:xlink="http://www.w3.org/1999/xlink" x="0px" y="0px"
	 width="484.213px" height="484.214px" viewBox="0 0 484.213 484.214" style="enable-background:new 0 0 484.213 484.214;"
	 xml:space="preserve">
<g>
	<g id="Layer_2_1_">
		<g>
			<path d="M193.754,231.569c-12.253,0-22.191,9.935-22.191,22.175c0,12.223,9.938,22.173,22.191,22.173
				c12.222,0,22.158-9.92,22.158-22.173C215.913,241.504,205.976,231.569,193.754,231.569z M198.3,267.871
				c-6.279,0-11.366-5.101-11.366-11.395c0-6.267,5.087-11.362,11.366-11.362c6.279,0,11.347,5.097,11.347,11.362
				C209.647,262.772,204.58,267.871,198.3,267.871z"/>
			<path d="M290.461,231.569c-12.223,0-22.158,9.935-22.158,22.175c0,12.253,9.937,22.173,22.158,22.173
				c12.253,0,22.189-9.95,22.189-22.173C312.652,241.504,302.714,231.569,290.461,231.569z M285.917,267.871
				c-6.279,0-11.348-5.101-11.348-11.395c0-6.267,5.066-11.362,11.348-11.362c6.279,0,11.365,5.097,11.365,11.362
				C297.282,262.772,292.195,267.871,285.917,267.871z"/>
			<path d="M441.571,128.226c0-24.708-24.79,8.873-64.388,0.705c-7.336-1.521-22.396-8.97-22.396-12.649V53.645
				c0-27.584-20.977-50.563-47.752-53.594c-2.002-0.228-7.289,0.252-11.422,2.607c-9.846,5.609-30.836,16.384-53.507,16.087
				c-22.671,0.297-43.661-10.479-53.508-16.087c-4.132-2.354-9.419-2.834-11.421-2.607c-26.775,3.03-47.752,26.01-47.752,53.594
				v62.637c0,3.68-15.059,11.128-22.395,12.649c-39.599,8.167-64.388-25.413-64.388-0.705c0,12.084,21.468,34.604,56.344,54.463
				c-0.572,1.917-1.113,3.842-1.61,5.771c-17.217,7.405-27.664,26.252-27.664,50.762c0,14.725,3.489,26.603,10.368,35.302
				c6.924,8.755,16.936,13.715,29.095,14.45c8.992,15.858,21.036,30.656,35.032,43.197c-24.84,4.653-45.236,9.481-47.66,13.122
				c-2.989,4.479,3.02,17.953,10.505,31.382C89.565,388.286,75.89,406.33,75.89,426.929c0,35.803,0,57.285,0,57.285h161.392h4.825
				h4.825h161.392c0,0,0-21.482,0-57.285c0-20.599-13.675-38.643-31.163-50.254c7.485-13.429,13.494-26.901,10.505-31.382
				c-2.424-3.641-22.82-8.469-47.659-13.122c13.996-12.541,26.04-27.339,35.031-43.197c12.159-0.735,22.171-5.695,29.095-14.45
				c6.88-8.699,10.369-20.577,10.369-35.302c0-24.51-10.447-43.356-27.664-50.762c-0.497-1.93-1.038-3.854-1.61-5.771
				C420.103,162.828,441.571,140.31,441.571,128.226z M135.229,134.293c0.019-0.146,0.046-0.291,0.071-0.437
				c0.053-0.308,0.121-0.612,0.2-0.917c0.043-0.161,0.082-0.323,0.132-0.484c0.117-0.379,0.255-0.755,0.413-1.131
				c0.013-0.03,0.022-0.062,0.034-0.091c-0.001,0.001-0.002,0.002-0.003,0.004c0.85-1.976,2.259-3.894,4.17-5.74
				c0,0-0.003,0.005-0.005,0.006c0.492-0.476,1.016-0.947,1.569-1.411c14.793,12.328,52.527,21.093,96.77,21.093
				c1.181,0,2.354-0.01,3.527-0.021c1.173,0.012,2.347,0.021,3.526,0.021c44.242,0,81.978-8.766,96.771-21.093
				c0.554,0.464,1.077,0.936,1.569,1.411c-0.002-0.001-0.005-0.006-0.005-0.006c1.911,1.847,3.318,3.765,4.169,5.74
				c0-0.002-0.002-0.003-0.002-0.004c0.012,0.029,0.021,0.061,0.033,0.091c0.158,0.375,0.297,0.752,0.413,1.131
				c0.051,0.161,0.088,0.323,0.132,0.484c0.079,0.305,0.147,0.609,0.2,0.917c0.025,0.146,0.054,0.291,0.07,0.437
				c0.059,0.448,0.1,0.896,0.1,1.348c0,0.319-0.019,0.638-0.048,0.954c-0.009,0.101-0.023,0.199-0.036,0.299
				c-0.024,0.221-0.058,0.44-0.098,0.66c-0.021,0.11-0.043,0.222-0.066,0.333c-0.047,0.216-0.102,0.433-0.159,0.646
				c-0.028,0.102-0.056,0.203-0.086,0.304c-0.083,0.271-0.179,0.539-0.281,0.808c-0.017,0.041-0.027,0.082-0.043,0.122
				c-0.127,0.313-0.267,0.625-0.42,0.936c-0.037,0.074-0.078,0.146-0.115,0.221c-0.123,0.236-0.25,0.47-0.388,0.704
				c-0.057,0.094-0.112,0.188-0.17,0.281c-0.139,0.222-0.282,0.443-0.434,0.666c-0.059,0.084-0.116,0.17-0.176,0.254
				c-0.189,0.266-0.389,0.53-0.598,0.792c-0.027,0.035-0.054,0.07-0.08,0.104c-0.253,0.313-0.52,0.625-0.801,0.935
				c-0.013,0.014-0.026,0.026-0.039,0.042c-0.262,0.285-0.534,0.567-0.818,0.85c-0.057,0.058-0.116,0.113-0.175,0.17
				c-0.256,0.249-0.521,0.497-0.794,0.743c-0.059,0.051-0.115,0.104-0.175,0.155c-0.321,0.284-0.653,0.566-1,0.849
				c-0.005,0.003-0.009,0.007-0.014,0.011c-0.752,0.61-1.561,1.211-2.424,1.803c-0.004,0.002-0.006,0.004-0.01,0.006
				c-0.425,0.29-0.861,0.578-1.313,0.864c-0.014,0.008-0.024,0.017-0.039,0.023c-7.816,4.95-19.502,9.186-33.805,12.313
				c0,0,0.002,0.002,0.003,0.003c-11.312,2.473-24.26,4.255-38.23,5.146c0,0,0,0,0.002,0c-4.996,0.32-10.121,0.525-15.352,0.609
				c-0.009,0-0.018,0-0.025,0c-1.738,0.028-3.485,0.042-5.246,0.042c-1.183,0-2.354-0.012-3.526-0.024
				c-1.173,0.014-2.346,0.024-3.527,0.024c-1.76,0-3.507-0.014-5.245-0.042c-0.009,0-0.018,0-0.026,0
				c-5.229-0.083-10.355-0.289-15.351-0.609h0.002c-13.972-0.891-26.92-2.673-38.231-5.146c0.001-0.001,0.003-0.003,0.003-0.003
				c-14.303-3.129-25.987-7.363-33.805-12.313c-0.014-0.008-0.026-0.017-0.039-0.023c-0.451-0.286-0.889-0.574-1.313-0.864
				c-0.004-0.002-0.006-0.004-0.01-0.006c-0.863-0.592-1.672-1.192-2.424-1.803c-0.005-0.004-0.009-0.008-0.014-0.011
				c-0.347-0.281-0.678-0.563-1-0.849c-0.06-0.052-0.116-0.104-0.174-0.155c-0.274-0.246-0.538-0.494-0.794-0.743
				c-0.059-0.057-0.118-0.112-0.175-0.17c-0.284-0.281-0.558-0.563-0.818-0.85c-0.013-0.016-0.027-0.028-0.04-0.042
				c-0.281-0.31-0.547-0.621-0.8-0.935c-0.027-0.033-0.053-0.068-0.081-0.104c-0.208-0.262-0.407-0.525-0.597-0.792
				c-0.06-0.084-0.117-0.169-0.176-0.254c-0.15-0.222-0.295-0.443-0.433-0.666c-0.058-0.094-0.115-0.188-0.17-0.281
				c-0.138-0.234-0.265-0.468-0.388-0.704c-0.037-0.074-0.079-0.146-0.116-0.221c-0.153-0.311-0.293-0.622-0.419-0.936
				c-0.016-0.04-0.027-0.081-0.043-0.122c-0.104-0.269-0.198-0.537-0.281-0.808c-0.031-0.101-0.058-0.202-0.086-0.304
				c-0.059-0.214-0.113-0.431-0.16-0.646c-0.023-0.11-0.046-0.222-0.066-0.333c-0.04-0.219-0.072-0.438-0.098-0.66
				c-0.012-0.1-0.027-0.198-0.036-0.299c-0.029-0.316-0.048-0.635-0.048-0.954C135.13,135.189,135.171,134.74,135.229,134.293z
				 M394.671,239.221c0,19.919-7.691,30.021-22.859,30.021c-0.355,0-0.877-0.041-1.43-0.086l-7.021-0.533l-3.012,5.841
				c-19.357,37.544-64.535,77.953-117.982,77.953c-0.086,0-0.173-0.002-0.259-0.002c-0.087,0-0.173,0.002-0.259,0.002
				c-53.447,0-98.625-40.409-117.982-77.953l-3.012-5.841l-7.022,0.533c-0.552,0.045-1.073,0.086-1.429,0.086
				c-15.168,0-22.859-10.102-22.859-30.021c0-6.562,1.282-27.896,17.348-33.175c1,6.873,4.885,28.932,13.713,30.325
				c9.735,1.538,1.975-26.466,10.17-38.115c31.786,13.264,70.087,22.865,111.333,23.012c41.246-0.146,79.547-9.749,111.333-23.012
				c8.195,11.649,0.436,39.653,10.17,38.115c8.828-1.394,12.713-23.452,13.713-30.325
				C393.388,211.324,394.671,232.659,394.671,239.221z"/>
		</g>
	</g>
</g>
<g>
</g>
<g>
</g>
<g>
</g>
<g>
</g>
<g>
</g>
<g>
</g>
<g>
</g>
<g>
</g>
<g>
</g>
<g>
</g>
<g>
</g>
<g>
</g>
<g>
</g>
<g>
</g>
<g>
</g>
</svg>
