<?xml version="1.0" encoding="utf-8"?>
<!-- Generator: Adobe Illustrator 16.0.0, SVG Export Plug-In . SVG Version: 6.00 Build 0)  -->
<!DOCTYPE svg PUBLIC "-//W3C//DTD SVG 1.1//EN" "http://www.w3.org/Graphics/SVG/1.1/DTD/svg11.dtd">
<svg version="1.1" id="Layer_1" xmlns="http://www.w3.org/2000/svg" xmlns:xlink="http://www.w3.org/1999/xlink" x="0px" y="0px"
	 width="67.899px" height="66.937px" viewBox="0 0 67.899 66.937" enable-background="new 0 0 67.899 66.937" xml:space="preserve">
<g>
	<path fill="#7E9FB8" d="M30.909,32.253l2.341-0.057V7.974c-0.772-0.063-1.552-0.104-2.341-0.104c-6.766,0-12.976,2.37-17.854,6.321
		L30.909,32.253z"/>
	<path fill="#7E9FB8" d="M34.671,32.071l29.687-0.234c1.43-18.741-9.955-30.153-29.824-29.528L34.671,32.071z"/>
	<path fill="#7E9FB8" d="M30.028,34.436L11.688,15.37c-5.637,5.188-9.172,12.627-9.172,20.894c0,7.401,2.834,14.14,7.475,19.193
		L30.028,34.436z"/>
	<path fill="#7E9FB8" d="M59.019,33.542H34.754L11.817,57.279l-1.785-1.777c5.188,5.627,12.619,9.154,20.876,9.154
		c15.681,0,28.393-12.712,28.393-28.393c0-0.918-0.046-1.824-0.134-2.719C59.167,33.536,59.019,33.542,59.019,33.542z"/>
</g>
</svg>
